<svg width="1153" height="1153" xmlns="http://www.w3.org/2000/svg" xmlns:xlink="http://www.w3.org/1999/xlink" xml:space="preserve" overflow="hidden"><g transform="translate(-891 -562)"><rect x="894.5" y="565.5" width="1146" height="1146" stroke="#000000" stroke-width="6.875" stroke-miterlimit="8"/><g><g><g><path d="M1909.47 3210.11C1872.52 3210.11 1861.05 3221.3 1821.57 3295.85 1785.87 3363.29 1653.03 3611.75 1594.62 3720.35 1566.79 3772.1 1542.74 3817.79 1541.18 3821.88 1538.54 3828.83 1542.51 3829.23 1602.54 3828.15L1666.73 3827 1759.81 3653.42C1811 3557.96 1864.66 3457.74 1879.05 3430.71 1893.44 3403.68 1907.11 3382.17 1909.43 3382.92 1911.75 3383.68 1935.37 3424.61 1961.92 3473.9 2070.06 3674.66 2119.01 3765.91 2135.09 3796.64L2152.04 3829.01 2215.82 3829.05C2250.9 3829.07 2279.59 3828.1 2279.59 3826.89 2279.59 3816.4 1973.99 3246.92 1960.17 3231.66 1946.8 3216.9 1930.83 3210.11 1909.47 3210.11ZM1910.33 3552.19 1910.32 3552.2 1910.3 3552.2C1908.57 3552.44 1905.87 3560.05 1899.4 3578.4 1873.9 3650.64 1846.73 3675.52 1776.1 3691.33L1752.09 3696.71 1782.12 3704.51C1849.94 3722.12 1879.11 3750.81 1901.37 3821.8L1908.92 3845.87 1920.17 3812.33C1933.81 3771.67 1947.97 3749.41 1970.63 3733 1991.43 3717.93 2028.35 3703.43 2053.75 3700.35L2072.57 3698.08 2043.3 3692.16C2007.46 3684.92 1977.27 3670.33 1956.58 3650.27 1941.1 3635.26 1919.91 3591.56 1913.55 3561.53 1912.3 3555.62 1911.56 3552.13 1910.37 3552.19L1910.36 3552.19 1910.35 3552.19 1910.34 3552.19Z" fill="#F9F8FA" transform="matrix(1 0 0 1.00091 -443.593 -2393.2)"/></g></g></g></g></svg>